<svg width="200" height="140" viewBox="0 0 200 140" fill="none" xmlns="http://www.w3.org/2000/svg">
<path d="M76.3418 0.0136719V12.5312H45.9512V21.5176C27.2267 31.7539 14.435 51.4778 14.0488 74.2275H0C0.567359 33.1374 34.047 0.000176061 75.2744 0C75.6308 0 75.9855 0.00769974 76.3418 0.0136719ZM76.3418 16.2002V28.4131H45.9512V39.0977C35.6813 47.4328 29.0265 60.0499 28.71 74.2275H16.1865C16.7539 42.0777 42.9892 16.1867 75.2744 16.1865C75.6308 16.1865 75.9855 16.1922 76.3418 16.2002ZM76.3418 31.4727V44.1416H45.9492V74.2275H31.457C32.0204 50.5123 51.4219 31.4592 75.2744 31.459C75.6307 31.459 75.9875 31.4647 76.3418 31.4727Z" fill="#114177"/>
<path d="M0.00292267 96.6894L2.14607 81.7253H2.38841L8.4704 94.0031L14.494 81.7253H14.7334L16.8853 96.6894H15.4196L13.9421 85.9882L8.65142 96.6894H8.26893L2.91398 85.9065L1.44239 96.6894H0H0.00292267Z" fill="#114177"/>
<path d="M25.9397 81.7253L32.9181 96.6894H31.3034L28.95 91.7665H22.5031L20.1701 96.6894H18.5029L25.5718 81.7253H25.9368H25.9397ZM25.7499 84.905L23.1863 90.3212H28.3018L25.7499 84.905Z" fill="#114177"/>
<path d="M33.6886 93.9039L34.9617 93.1418C35.8551 94.7886 36.8917 95.612 38.0625 95.612C38.5647 95.612 39.0377 95.4952 39.4757 95.2616C39.9166 95.028 40.2524 94.7156 40.4831 94.3214C40.7137 93.9272 40.8305 93.5097 40.8305 93.0688C40.8305 92.5695 40.6612 92.0761 40.3225 91.5943C39.8553 90.9315 38.9998 90.1285 37.7589 89.1942C36.5121 88.2511 35.7354 87.5679 35.4288 87.1503C34.9004 86.4437 34.6347 85.6817 34.6347 84.8612C34.6347 84.2101 34.7894 83.6174 35.1018 83.0801C35.4142 82.5458 35.8522 82.1224 36.4187 81.8129C36.9851 81.5063 37.6012 81.3516 38.264 81.3516C38.9677 81.3516 39.6275 81.5268 40.2436 81.8742C40.8568 82.2217 41.5079 82.867 42.1911 83.8013L40.9707 84.7269C40.4071 83.9823 39.9283 83.4889 39.5312 83.2524C39.1341 83.0129 38.702 82.8962 38.2348 82.8962C37.6304 82.8962 37.1399 83.0801 36.7544 83.4451C36.3719 83.8101 36.1792 84.2626 36.1792 84.7999C36.1792 85.124 36.2464 85.4393 36.3836 85.7459C36.5179 86.0495 36.7661 86.3824 37.1253 86.7416C37.3209 86.9343 37.9662 87.4306 39.0582 88.2365C40.3517 89.1942 41.2422 90.0439 41.724 90.7913C42.2057 91.5359 42.4452 92.2863 42.4452 93.0396C42.4452 94.1258 42.0335 95.066 41.2101 95.8689C40.3867 96.666 39.3823 97.069 38.2056 97.069C37.2975 97.069 36.4741 96.8266 35.7325 96.3419C34.9938 95.8572 34.3106 95.0455 33.6886 93.9068V93.9039Z" fill="#114177"/>
<path d="M45.59 81.7253H47.085V88H54.7028V81.7253H56.1977V96.6894H54.7028V89.4657H47.085V96.6894H45.59V81.7253Z" fill="#114177"/>
<path d="M73.7749 84.502L72.5953 85.4071C71.9442 84.5604 71.1617 83.918 70.2507 83.4801C69.3397 83.0421 68.3353 82.8231 67.2433 82.8231C66.0491 82.8231 64.9454 83.1092 63.9264 83.6844C62.9103 84.2567 62.122 85.0246 61.5613 85.994C61.0007 86.9605 60.7234 88.0466 60.7234 89.2525C60.7234 91.0774 61.3482 92.5986 62.6008 93.822C63.8505 95.0425 65.4301 95.6528 67.3338 95.6528C69.4303 95.6528 71.1821 94.8323 72.5924 93.1914L73.772 94.0877C73.0275 95.0367 72.096 95.7696 70.9807 96.2893C69.8653 96.809 68.6185 97.0689 67.2404 97.0689C64.6242 97.0689 62.5599 96.1988 61.0475 94.4556C59.7803 92.984 59.1467 91.2059 59.1467 89.124C59.1467 86.9371 59.9146 85.0918 61.4504 83.5968C62.9862 82.1019 64.9104 81.3544 67.2229 81.3544C68.6185 81.3544 69.8799 81.6289 71.007 82.1807C72.1311 82.7355 73.0537 83.5092 73.772 84.5049L73.7749 84.502Z" fill="#114177"/>
<path d="M83.9009 81.3516C86.1667 81.3516 88.0646 82.1049 89.5888 83.6203C91.1158 85.1327 91.8779 86.9927 91.8779 89.203C91.8779 91.4133 91.1158 93.2498 89.5946 94.7769C88.0704 96.304 86.2134 97.066 84.0207 97.066C81.8279 97.066 79.93 96.304 78.4029 94.7886C76.8759 93.2673 76.1109 91.4308 76.1109 89.276C76.1109 87.8365 76.4583 86.505 77.1532 85.2758C77.8482 84.0495 78.7971 83.0889 79.9971 82.3939C81.1972 81.699 82.4965 81.3516 83.8951 81.3516H83.9009ZM83.9681 82.8056C82.8615 82.8056 81.8104 83.0947 80.8205 83.6699C79.8278 84.248 79.0541 85.0247 78.4964 86.0028C77.9416 86.981 77.6613 88.0701 77.6613 89.2701C77.6613 91.0483 78.2774 92.5491 79.5095 93.7754C80.7417 95.0017 82.2279 95.612 83.9681 95.612C85.1302 95.612 86.2047 95.3317 87.1916 94.7681C88.1785 94.2046 88.9493 93.4367 89.5041 92.4586C90.0588 91.4804 90.3333 90.3942 90.3333 89.2C90.3333 88.0058 90.0559 86.9401 89.5041 85.9766C88.9493 85.0159 88.1697 84.248 87.1653 83.6728C86.1609 83.0976 85.0952 82.8085 83.9681 82.8085V82.8056Z" fill="#114177"/>
<path d="M94.8825 81.7253H96.3775V95.244H102.135V96.6894H94.8825V81.7253Z" fill="#114177"/>
<path d="M104.512 81.7253H113.084V83.191H106.007V87.8803H113.026V89.346H106.007V95.2236H113.026V96.6894H104.512V81.7253Z" fill="#114177"/>
<path d="M0.947235 102.178H3.92837C5.63647 102.178 6.78979 102.253 7.38544 102.402C8.24094 102.613 8.93878 103.045 9.48187 103.699C10.025 104.353 10.2965 105.173 10.2965 106.166C10.2965 107.159 10.0308 107.985 9.5023 108.633C8.97382 109.279 8.24386 109.717 7.31536 109.938C6.63796 110.102 5.36784 110.184 3.51084 110.184H2.44219V117.142H0.947235V102.178ZM2.44219 103.643V108.718L4.97367 108.75C5.99852 108.75 6.746 108.657 7.22193 108.47C7.69494 108.286 8.06867 107.982 8.34022 107.568C8.61176 107.15 8.74607 106.686 8.74607 106.172C8.74607 105.658 8.61176 105.211 8.34022 104.797C8.06867 104.379 7.71245 104.084 7.26572 103.909C6.82191 103.734 6.09487 103.643 5.08462 103.643H2.43926H2.44219Z" fill="#114177"/>
<path d="M13.365 102.178H16.3462C18.0075 102.178 19.1317 102.245 19.7215 102.382C20.6091 102.583 21.3332 103.021 21.888 103.69C22.4427 104.359 22.723 105.182 22.723 106.157C22.723 106.975 22.5303 107.69 22.1478 108.309C21.7653 108.928 21.2164 109.392 20.504 109.708C19.7915 110.026 18.8076 110.187 17.555 110.193L22.9362 117.139H21.085L15.7038 110.193H14.8571V117.139H13.3621V102.175L13.365 102.178ZM14.86 103.643V108.73L17.4382 108.75C18.4367 108.75 19.1755 108.657 19.6543 108.467C20.1332 108.277 20.5069 107.973 20.7755 107.556C21.0442 107.138 21.1785 106.674 21.1785 106.157C21.1785 105.641 21.0442 105.2 20.7726 104.791C20.5011 104.382 20.1448 104.087 19.704 103.912C19.2631 103.737 18.5273 103.646 17.5024 103.646H14.8629L14.86 103.643Z" fill="#114177"/>
<path d="M33.0533 101.804C35.3191 101.804 37.217 102.557 38.7411 104.073C40.2682 105.585 41.0303 107.445 41.0303 109.655C41.0303 111.866 40.2682 113.702 38.747 115.229C37.2228 116.756 35.3658 117.518 33.173 117.518C30.9802 117.518 29.0824 116.756 27.5553 115.241C26.0282 113.72 25.2632 111.883 25.2632 109.728C25.2632 108.289 25.6107 106.957 26.3056 105.728C27.0005 104.502 27.9495 103.541 29.1495 102.846C30.3496 102.151 31.6489 101.804 33.0475 101.804H33.0533ZM33.1176 103.258C32.0109 103.258 30.9598 103.547 29.97 104.122C28.9773 104.7 28.2035 105.477 27.6458 106.455C27.0911 107.433 26.8107 108.522 26.8107 109.722C26.8107 111.501 27.4268 113.001 28.659 114.228C29.8912 115.454 31.3773 116.064 33.1176 116.064C34.2796 116.064 35.3541 115.784 36.341 115.22C37.3279 114.657 38.1017 113.889 38.6535 112.911C39.2083 111.933 39.4828 110.847 39.4828 109.652C39.4828 108.458 39.2054 107.392 38.6535 106.429C38.0988 105.468 37.3192 104.7 36.3148 104.125C35.3103 103.55 34.2446 103.261 33.1176 103.261V103.258Z" fill="#114177"/>
<path d="M44.023 102.178H47.0042C48.7123 102.178 49.8656 102.253 50.4612 102.402C51.3167 102.613 52.0146 103.045 52.5577 103.699C53.1008 104.353 53.3723 105.173 53.3723 106.166C53.3723 107.159 53.1066 107.985 52.5781 108.633C52.0496 109.279 51.3197 109.717 50.3912 109.938C49.7138 110.102 48.4436 110.184 46.5866 110.184H45.518V117.142H44.023V102.178ZM45.518 103.643V108.718L48.0495 108.75C49.0743 108.75 49.8218 108.657 50.2977 108.47C50.7707 108.286 51.1445 107.982 51.416 107.568C51.6876 107.15 51.8219 106.686 51.8219 106.172C51.8219 105.658 51.6876 105.211 51.416 104.797C51.1445 104.379 50.7883 104.084 50.3415 103.909C49.8977 103.734 49.1707 103.643 48.1604 103.643H45.5151H45.518Z" fill="#114177"/>
<path d="M56.3712 102.178H64.9467V103.643H57.869V108.333H64.8883V109.798H57.869V115.676H64.8883V117.142H56.3741V102.178H56.3712Z" fill="#114177"/>
<path d="M67.6091 102.178H70.5903C72.2516 102.178 73.3758 102.245 73.9656 102.382C74.8532 102.583 75.5773 103.021 76.1321 103.69C76.6868 104.359 76.9671 105.182 76.9671 106.157C76.9671 106.975 76.7744 107.69 76.3919 108.309C76.0094 108.928 75.4605 109.392 74.7481 109.708C74.0356 110.026 73.0517 110.187 71.7991 110.193L77.1803 117.139H75.332L69.9508 110.193H69.1041V117.139H67.6091V102.175V102.178ZM69.1041 103.643V108.73L71.6823 108.75C72.6809 108.75 73.4196 108.657 73.8984 108.467C74.3773 108.277 74.751 107.973 75.0196 107.556C75.2883 107.138 75.4226 106.674 75.4226 106.157C75.4226 105.641 75.2883 105.2 75.0167 104.791C74.7452 104.382 74.3889 104.087 73.9481 103.912C73.5072 103.737 72.7714 103.646 71.7465 103.646H69.107L69.1041 103.643Z" fill="#114177"/>
<path d="M78.8127 103.643V102.178H87.0116V103.643H83.6742V117.142H82.1501V103.643H78.8127Z" fill="#114177"/>
<path d="M87.9869 102.178H89.7067L93.5346 108.35L97.3012 102.178H99.0297L94.2908 109.988V117.139H92.8163V109.988L87.984 102.178H87.9869Z" fill="#114177"/>
<path d="M0.00292267 137.6L2.14607 122.636H2.38841L8.4704 134.913L14.494 122.636H14.7334L16.8853 137.6H15.4196L13.9421 126.899L8.65142 137.6H8.26893L2.91398 126.817L1.44239 137.6H0H0.00292267Z" fill="#114177"/>
<path d="M25.9397 122.638L32.9181 137.603H31.3034L28.95 132.68H22.5031L20.1701 137.603H18.5029L25.5718 122.638H25.9368H25.9397ZM25.7499 125.815L23.1863 131.231H28.3018L25.7499 125.815Z" fill="#114177"/>
<path d="M35.2451 137.6V122.636H35.5692L45.5258 134.108V122.636H47.0003V137.6H46.6645L36.7897 126.271V137.6H35.2422H35.2451Z" fill="#114177"/>
<path d="M56.7586 122.638L63.737 137.603H62.1223L59.7689 132.68H53.322L50.9891 137.603H49.3218L56.3907 122.638H56.7557H56.7586ZM56.5718 125.815L54.0082 131.231H59.1237L56.5718 125.815Z" fill="#114177"/>
<path d="M80.4878 125.15L79.3286 126.247C78.4935 125.427 77.5796 124.805 76.5869 124.382C75.5942 123.958 74.6248 123.745 73.6817 123.745C72.5079 123.745 71.3925 124.031 70.3297 124.609C69.2669 125.185 68.4464 125.967 67.8625 126.954C67.2785 127.941 66.9865 128.98 66.9865 130.081C66.9865 131.182 67.2902 132.277 67.8917 133.29C68.4961 134.306 69.3282 135.1 70.394 135.681C71.4597 136.262 72.6247 136.551 73.8919 136.551C75.4306 136.551 76.7329 136.116 77.7986 135.249C78.8643 134.379 79.495 133.255 79.6907 131.871H74.9197V130.426H81.3696C81.355 132.741 80.6688 134.575 79.3111 135.932C77.9504 137.29 76.1314 137.973 73.8539 137.973C71.0889 137.973 68.8961 137.03 67.2844 135.144C66.0434 133.693 65.4215 132.014 65.4215 130.107C65.4215 128.691 65.7777 127.372 66.4902 126.151C67.2026 124.928 68.1778 123.976 69.4187 123.287C70.6597 122.598 72.0641 122.253 73.6291 122.253C74.8963 122.253 76.0905 122.481 77.2088 122.939C78.3271 123.395 79.4191 124.131 80.4849 125.141L80.4878 125.15Z" fill="#114177"/>
<path d="M84.2308 122.638H92.8063V124.104H85.7286V128.793H92.7479V130.259H85.7286V136.137H92.7479V137.603H84.2337V122.638H84.2308Z" fill="#114177"/>
<path d="M94.707 137.6L96.8502 122.636H97.0925L103.174 134.913L109.198 122.636H109.438L111.589 137.6H110.124L108.646 126.899L103.356 137.6H102.973L97.6181 126.817L96.1465 137.6H94.7012H94.707Z" fill="#114177"/>
<path d="M114.541 122.638H123.117V124.104H116.039V128.793H123.059V130.259H116.039V136.137H123.059V137.603H114.544V122.638H114.541Z" fill="#114177"/>
<path d="M125.71 137.6V122.636H126.034L135.991 134.108V122.636H137.468V137.6H137.129L127.254 126.271V137.6H125.707H125.71Z" fill="#114177"/>
<path d="M139.623 124.101V122.636H147.822V124.101H144.484V137.6H142.96V124.101H139.623Z" fill="#114177"/>
<path d="M149.057 134.855L150.429 135.506L148.365 139.352L147.358 138.922L149.057 134.855Z" fill="#114177"/>
<path d="M159.197 122.638H160.692V137.603H159.197V122.638Z" fill="#114177"/>
<path d="M164.132 137.6V122.636H164.456L174.413 134.108V122.636H175.887V137.6H175.551L165.674 126.271V137.6H164.129H164.132Z" fill="#114177"/>
<path d="M193.464 125.415L192.282 126.32C191.634 125.474 190.851 124.831 189.94 124.393C189.026 123.955 188.025 123.736 186.933 123.736C185.739 123.736 184.635 124.022 183.619 124.598C182.603 125.17 181.814 125.938 181.254 126.907C180.693 127.874 180.416 128.96 180.416 130.166C180.416 131.991 181.041 133.512 182.29 134.735C183.543 135.956 185.12 136.566 187.023 136.566C189.12 136.566 190.872 135.746 192.282 134.105L193.464 135.001C192.72 135.95 191.788 136.686 190.673 137.203C189.558 137.722 188.311 137.982 186.933 137.982C184.314 137.982 182.249 137.112 180.74 135.369C179.473 133.897 178.839 132.119 178.839 130.037C178.839 127.85 179.607 126.005 181.143 124.51C182.682 123.015 184.603 122.268 186.915 122.268C188.311 122.268 189.572 122.542 190.699 123.094C191.824 123.649 192.746 124.422 193.464 125.418V125.415Z" fill="#114177"/>
<path d="M197.798 135.363C198.142 135.363 198.437 135.486 198.682 135.728C198.927 135.97 199.047 136.271 199.047 136.622C199.047 136.972 198.925 137.267 198.682 137.512C198.437 137.76 198.142 137.883 197.798 137.883C197.453 137.883 197.158 137.76 196.913 137.512C196.668 137.264 196.548 136.966 196.548 136.622C196.548 136.277 196.67 135.97 196.913 135.728C197.158 135.483 197.45 135.363 197.798 135.363Z" fill="#114177"/>
</svg>
